<svg width="50" height="50" viewBox="0 0 50 50" fill="none" xmlns="http://www.w3.org/2000/svg">
<path d="M35.4167 27.0833H27.0833V35.4167H22.9167V27.0833H14.5833V22.9167H22.9167V14.5833H27.0833V22.9167H35.4167M39.5833 6.25H10.4167C8.10417 6.25 6.25 8.10417 6.25 10.4167V39.5833C6.25 40.6884 6.68899 41.7482 7.47039 42.5296C8.25179 43.311 9.3116 43.75 10.4167 43.75H39.5833C40.6884 43.75 41.7482 43.311 42.5296 42.5296C43.311 41.7482 43.75 40.6884 43.75 39.5833V10.4167C43.75 9.3116 43.311 8.25179 42.5296 7.47039C41.7482 6.68899 40.6884 6.25 39.5833 6.25Z" fill="#76BDF1"/>
</svg>
