<svg width="48" height="49" viewBox="0 0 48 49" fill="none" xmlns="http://www.w3.org/2000/svg">
<path d="M40.8138 4.51641C40.6372 4.31434 40.4234 4.1517 40.185 4.03829C39.9467 3.92488 39.6889 3.86305 39.4271 3.85653C39.1652 3.85001 38.9049 3.89894 38.6616 4.00036C38.4184 4.10178 38.1973 4.25359 38.0118 4.44664L36.4025 6.12193L39.143 8.97682L40.725 7.33273C41.085 6.96606 41.2953 6.46816 41.3119 5.94322C41.3284 5.41829 41.1499 4.90702 40.8138 4.51641ZM22.2152 30.8438H15.4687V23.7974L16.2949 22.9364L28.4361 10.2813H4.21875V42.5938H35.1562V17.3L23.0396 29.9809L22.2152 30.8438ZM35.1562 13.1416L38.0382 10.1252L35.3057 7.27123L32.4185 10.2813H35.1562V13.1416Z" fill="#76BDF1"/>
<path d="M18.2812 27.9062H21.0489L35.1562 13.1416V10.2812H32.4185L18.2812 25.0156V27.9062Z" fill="#76BDF1"/>
</svg>
