<svg width="13" height="13" viewBox="0 0 13 13" fill="none" xmlns="http://www.w3.org/2000/svg">
<g clip-path="url(#clip0_17_1090)">
<path d="M6.5 0.8125C5.37512 0.8125 4.2755 1.14607 3.3402 1.77102C2.40489 2.39597 1.67591 3.28423 1.24544 4.32349C0.814964 5.36274 0.702333 6.50631 0.921786 7.60958C1.14124 8.71284 1.68292 9.72626 2.47833 10.5217C3.27374 11.3171 4.28716 11.8588 5.39043 12.0782C6.49369 12.2977 7.63726 12.185 8.67652 11.7546C9.71577 11.3241 10.604 10.5951 11.229 9.65981C11.8539 8.7245 12.1875 7.62488 12.1875 6.5C12.1875 4.99158 11.5883 3.54494 10.5217 2.47833C9.45506 1.41172 8.00842 0.8125 6.5 0.8125ZM6.5 11.375C5.53582 11.375 4.59329 11.0891 3.7916 10.5534C2.98991 10.0177 2.36507 9.25637 1.99609 8.36558C1.62711 7.47479 1.53057 6.49459 1.71867 5.54893C1.90678 4.60328 2.37108 3.73464 3.05286 3.05285C3.73464 2.37107 4.60328 1.90677 5.54894 1.71867C6.4946 1.53057 7.4748 1.62711 8.36559 1.99609C9.25638 2.36506 10.0177 2.98991 10.5534 3.7916C11.0891 4.59329 11.375 5.53582 11.375 6.5C11.375 7.79293 10.8614 9.03291 9.94715 9.94715C9.03291 10.8614 7.79293 11.375 6.5 11.375Z" fill="#6A6A6A"/>
</g>
<defs>
<clipPath id="clip0_17_1090">
<rect width="13" height="13" fill="white"/>
</clipPath>
</defs>
</svg>
