<?xml version="1.0" encoding="UTF-8"?>
<svg version="1.1" xmlns="http://www.w3.org/2000/svg" width="512" height="512">
<path d="M0 0 C117.48 0 234.96 0 356 0 C356.0928125 79.014375 356.0928125 79.014375 356.1875 159.625 C356.21481201 176.25600098 356.24212402 192.88700195 356.27026367 210.02197266 C356.28381348 230.3347168 356.28381348 230.3347168 356.28633118 239.84481812 C356.28912544 246.48506872 356.30011579 253.12524334 356.31672668 259.76547241 C356.33587192 267.43018789 356.34449634 275.09483066 356.34033485 282.7595702 C356.33853367 286.67736662 356.34131674 290.5950007 356.35764539 294.51276708 C356.37506739 298.71863025 356.36894843 302.92414409 356.36076355 307.1300354 C356.37387054 308.94183068 356.37387054 308.94183068 356.38724232 310.79022789 C356.29072094 329.31673774 351.25508325 344.64221962 338.8203125 358.4140625 C327.17011805 369.82889949 312.43755725 375.31876475 296.33076477 375.26742554 C295.27954522 375.27195665 294.22832567 375.27648776 293.14525098 375.28115618 C289.63495617 375.29378132 286.1248169 375.292181 282.61450195 375.29052734 C280.09257305 375.2965138 277.57064598 375.30331962 275.04872131 375.31088257 C268.91594271 375.3267059 262.78322073 375.3329905 256.65042362 375.33410732 C251.66168524 375.33505962 246.67295947 375.33917896 241.68422508 375.34550858 C227.52025515 375.36311206 213.35631546 375.37234898 199.19233451 375.37084763 C198.42962828 375.37076772 197.66692205 375.3706878 196.88110352 375.37060547 C196.11745895 375.37052371 195.35381439 375.37044195 194.56702908 375.37035771 C182.199336 375.36954532 169.83176485 375.38867344 157.46410701 375.4168822 C144.74549274 375.44566099 132.02693782 375.45941972 119.30829018 375.45769465 C112.17564662 375.45703241 105.04313085 375.46245121 97.91051674 375.48405075 C91.19879134 375.50424642 84.48737964 375.503538 77.77562523 375.48901749 C75.31869995 375.48693175 72.8617577 375.49161612 70.40486145 375.5037384 C49.05238364 375.60222864 32.57885606 372.99025985 16.5078125 357.62890625 C3.03347311 343.50393676 -0.33115047 326.42097609 -0.24050903 307.49079895 C-0.24222107 306.17374466 -0.24393311 304.85669037 -0.24569702 303.49972534 C-0.25015134 299.86613772 -0.24219967 296.23266951 -0.23214546 292.59909703 C-0.22337027 288.61224961 -0.22633743 284.62540711 -0.2277813 280.63855267 C-0.22884177 272.91027538 -0.21963493 265.18204483 -0.20677864 257.45377953 C-0.19234532 248.5086919 -0.19078731 239.5636321 -0.18920898 230.61853027 C-0.17872002 207.01651281 -0.15079766 183.4145057 -0.125 159.8125 C-0.08375 107.074375 -0.0425 54.33625 0 0 Z M80 60 C80 137.88 80 215.76 80 296 C92.54 296 105.08 296 118 296 C118 218.12 118 140.24 118 60 C105.46 60 92.92 60 80 60 Z M159 60 C159 137.88 159 215.76 159 296 C171.54 296 184.08 296 197 296 C197 218.12 197 140.24 197 60 C184.46 60 171.92 60 159 60 Z M238 60 C238 137.88 238 215.76 238 296 C250.54 296 263.08 296 276 296 C276 218.12 276 140.24 276 60 C263.46 60 250.92 60 238 60 Z " fill="#333333" transform="translate(78,137)"/>
<path d="M0 0 C0.9472998 -0.0071553 1.89459961 -0.01431061 2.87060547 -0.02168274 C3.8981897 -0.02437164 4.92577393 -0.02706055 5.98449707 -0.02983093 C7.07625244 -0.03640213 8.16800781 -0.04297333 9.29284668 -0.04974365 C12.90425694 -0.06944456 16.5156256 -0.08113406 20.1270752 -0.09111023 C21.98242638 -0.09722352 21.98242638 -0.09722352 23.8752594 -0.10346031 C29.75123139 -0.12216273 35.62719028 -0.13672895 41.5031848 -0.14507228 C48.25423379 -0.15481964 55.00495272 -0.18107859 61.7558856 -0.22157317 C67.62755185 -0.25556682 73.49910915 -0.26723335 79.37086487 -0.27127647 C81.85537448 -0.27612732 84.33988096 -0.28769803 86.82432556 -0.30631447 C106.82513302 -0.44683301 122.84262512 0.82662737 138.1583252 15.14717102 C147.53130464 26.20977674 150.84138332 37.75586881 151.70910645 51.98310852 C151.77515076 53.01987732 151.77515076 53.01987732 151.8425293 54.07759094 C151.94987165 55.7673203 152.05438828 57.45722877 152.1583252 59.14717102 C153.18039062 59.13828857 154.20245605 59.12940613 155.25549316 59.12025452 C164.90672921 59.03902385 174.55789551 58.97913621 184.20939636 58.93992233 C189.17087091 58.91908399 194.13206857 58.89083507 199.09338379 58.84541321 C203.88501695 58.80182139 208.67638447 58.7780057 213.46820068 58.76766205 C215.29258402 58.76029457 217.11695348 58.74590763 218.94122314 58.72425079 C221.50479078 58.69503901 224.06727307 58.69122235 226.63098145 58.69306946 C227.37833054 58.67868835 228.12567963 58.66430725 228.89567566 58.64949036 C234.35637596 58.69181866 238.61601063 60.07093107 243.1583252 63.14717102 C248.03034728 68.13131838 248.22114633 70.64974013 249.1583252 78.14717102 C255.7583252 78.14717102 262.3583252 78.14717102 269.1583252 78.14717102 C269.1583252 91.67717102 269.1583252 105.20717102 269.1583252 119.14717102 C125.9383252 119.14717102 -17.2816748 119.14717102 -164.8416748 119.14717102 C-164.8416748 105.61717102 -164.8416748 92.08717102 -164.8416748 78.14717102 C-158.2416748 78.14717102 -151.6416748 78.14717102 -144.8416748 78.14717102 C-144.5116748 75.50717102 -144.1816748 72.86717102 -143.8416748 70.14717102 C-141.67817649 64.98448836 -137.96997532 62.29143653 -133.04525757 59.95394135 C-129.4531714 58.63881556 -126.1044759 58.62013639 -122.31433105 58.69306946 C-121.0982592 58.6921933 -121.0982592 58.6921933 -119.85762024 58.69129944 C-117.20601999 58.69406275 -114.55557607 58.72506989 -111.9041748 58.75654602 C-110.05473443 58.76401469 -108.2052861 58.76970466 -106.35583496 58.7736969 C-101.5092347 58.78890402 -96.66312074 58.82814294 -91.81671143 58.87251282 C-86.86285987 58.91357217 -81.90892905 58.93173062 -76.95495605 58.95185852 C-67.25031636 58.99464234 -57.54603616 59.0628335 -47.8416748 59.14717102 C-47.78326416 58.13614319 -47.72485352 57.12511536 -47.66467285 56.08345032 C-47.58195614 54.73358393 -47.4990179 53.38373111 -47.41589355 52.03388977 C-47.37814819 51.37030457 -47.34040283 50.70671936 -47.30151367 50.02302551 C-46.32431838 34.47847023 -40.48879226 21.13264989 -29.0760498 10.50263977 C-21.1469603 3.9228281 -10.2910537 0.05368605 0 0 Z M-2.8416748 44.14717102 C-5.59746605 49.05142126 -5.59746605 49.05142126 -5.8416748 59.14717102 C32.4383252 59.14717102 70.7183252 59.14717102 110.1583252 59.14717102 C110.05538125 50.03620676 110.05538125 50.03620676 106.1583252 43.14717102 C101.01020118 40.89808238 96.28500881 40.85673582 90.77575684 40.87251282 C89.84978195 40.86740189 88.92380707 40.86229095 87.96977234 40.85702515 C84.91927567 40.84316399 81.8690058 40.84408324 78.81848145 40.84638977 C76.69148169 40.8425011 74.56448272 40.83816608 72.43748474 40.83340454 C67.98315919 40.82594993 63.5289129 40.82622826 59.07458496 40.83149719 C53.37390012 40.83729253 47.67354011 40.8203554 41.97290897 40.79715252 C37.58135591 40.78240285 33.18988087 40.78154514 28.79830742 40.78466225 C26.69681594 40.78414972 24.59532001 40.77892479 22.49385262 40.76885033 C19.55245116 40.75647873 16.61167987 40.763282 13.67028809 40.77485657 C12.37567154 40.76339096 12.37567154 40.76339096 11.05490112 40.75169373 C5.69620388 40.79817214 1.85236191 41.47258615 -2.8416748 44.14717102 Z " fill="#333333" transform="translate(203.8416748046875,-0.1471710205078125)"/>
</svg>
