<svg width="62" height="65" viewBox="0 0 62 65" fill="none" xmlns="http://www.w3.org/2000/svg">
<path d="M41.0176 16.1235C41.0176 18.9743 39.9372 21.7084 38.0141 23.7242C36.0911 25.74 33.4828 26.8725 30.7632 26.8725C28.0435 26.8725 25.4353 25.74 23.5122 23.7242C21.5892 21.7084 20.5088 18.9743 20.5088 16.1235C20.5088 13.2727 21.5892 10.5386 23.5122 8.52282C25.4353 6.50699 28.0435 5.37451 30.7632 5.37451C33.4828 5.37451 36.0911 6.50699 38.0141 8.52282C39.9372 10.5386 41.0176 13.2727 41.0176 16.1235ZM40.1921 36.2859C38.9795 36.2994 37.849 36.3477 36.8645 36.4848C35.2162 36.7186 33.4114 37.2721 31.9219 38.8361C30.4299 40.3974 29.9018 42.2892 29.6813 44.0171C29.4814 45.5704 29.4814 47.4676 29.4814 49.483V49.9452C29.4814 51.9606 29.4814 53.8578 29.6813 55.4111C29.8352 56.623 30.1428 57.9156 30.8273 59.1195H30.7632C10.2544 59.1195 10.2544 53.7047 10.2544 47.0268C10.2544 40.349 19.4372 34.9342 30.7632 34.9342C34.1625 34.9342 37.3696 35.4206 40.1921 36.2859Z" fill="#76BDF1"/>
<path fill-rule="evenodd" clip-rule="evenodd" d="M42.2993 59.1193C38.0693 59.1193 35.9543 59.1193 34.6418 57.7408C33.3267 56.3649 33.3267 54.1479 33.3267 49.714C33.3267 45.28 33.3267 43.063 34.6418 41.6872C35.9543 40.3086 38.0693 40.3086 42.2993 40.3086C46.5292 40.3086 48.6442 40.3086 49.9567 41.6872C51.2718 43.063 51.2719 45.28 51.2719 49.714C51.2719 54.1479 51.2718 56.3649 49.9567 57.7408C48.6442 59.1193 46.5292 59.1193 42.2993 59.1193ZM47.3444 47.6878C47.6249 47.3938 47.7824 46.995 47.7824 46.5793C47.7824 46.1635 47.6249 45.7648 47.3444 45.4708C47.064 45.1768 46.6836 45.0116 46.2869 45.0116C45.8903 45.0116 45.5099 45.1768 45.2294 45.4708L40.3073 50.6303L39.3691 49.6495C39.2302 49.5039 39.0653 49.3884 38.8839 49.3096C38.7024 49.2309 38.508 49.1903 38.3116 49.1903C38.1152 49.1903 37.9207 49.2309 37.7393 49.3096C37.5578 49.3884 37.393 49.5039 37.2541 49.6495C37.1152 49.795 37.0051 49.9678 36.9299 50.158C36.8548 50.3482 36.8161 50.5521 36.8161 50.758C36.8161 50.9638 36.8548 51.1677 36.9299 51.3579C37.0051 51.5481 37.1152 51.7209 37.2541 51.8664L39.2486 53.9571C39.3874 54.1028 39.5522 54.2184 39.7337 54.2972C39.9151 54.3761 40.1096 54.4167 40.3061 54.4167C40.5025 54.4167 40.697 54.3761 40.8784 54.2972C41.0599 54.2184 41.2247 54.1028 41.3635 53.9571L47.3444 47.6878Z" fill="#58ED5E"/>
</svg>
